{
    "asset" : {
        "generator" : "Khronos glTF Blender I/O v1.1.46",
        "version" : "2.0"
    },
    "scene" : 0,
    "scenes" : [
        {
            "name" : "Scene",
            "nodes" : [
                0,
                1
            ]
        }
    ],
    "nodes" : [
        {
            "mesh" : 0,
            "name" : "Cube",
            "scale" : [
                2,
                2,
                2
            ],
            "translation" : [
                -15,
                2,
                0
            ]
        },
        {
            "mesh" : 1,
            "name" : "Cube.007",
            "rotation" : [
                0,
                1,
                0,
                -1.6292068494294654e-07
            ],
            "scale" : [
                2,
                2,
                2
            ],
            "translation" : [
                17,
                2,
                -9.258601494366303e-06
            ]
        }
    ],
    "materials" : [
        {
            "doubleSided" : true,
            "emissiveFactor" : [
                0,
                0,
                0
            ],
            "name" : "Material",
            "normalTexture" : {
                "index" : 0,
                "texCoord" : 0
            },
            "pbrMetallicRoughness" : {
                "baseColorTexture" : {
                    "index" : 1,
                    "texCoord" : 0
                },
                "metallicFactor" : 0
            }
        }
    ],
    "meshes" : [
        {
            "name" : "Cube.007",
            "primitives" : [
                {
                    "attributes" : {
                        "POSITION" : 0,
                        "NORMAL" : 1,
                        "TEXCOORD_0" : 2
                    },
                    "indices" : 3,
                    "material" : 0
                }
            ]
        },
        {
            "name" : "Cube.008",
            "primitives" : [
                {
                    "attributes" : {
                        "POSITION" : 4,
                        "NORMAL" : 5,
                        "TEXCOORD_0" : 6
                    },
                    "indices" : 7,
                    "material" : 0
                }
            ]
        }
    ],
    "textures" : [
        {
            "source" : 0
        },
        {
            "source" : 1
        }
    ],
    "images" : [
        {
            "bufferView" : 4,
            "mimeType" : "image/jpeg",
            "name" : "Concrete_013_NORM"
        },
        {
            "bufferView" : 5,
            "mimeType" : "image/jpeg",
            "name" : "Concrete_013_COLOR"
        }
    ],
    "accessors" : [
        {
            "bufferView" : 0,
            "componentType" : 5126,
            "count" : 10240,
            "max" : [
                1.0025969743728638,
                1.0000001192092896,
                1.0009021759033203
            ],
            "min" : [
                -0.0014113635988906026,
                -1.0000001192092896,
                -1.001058578491211
            ],
            "type" : "VEC3"
        },
        {
            "bufferView" : 1,
            "componentType" : 5126,
            "count" : 10240,
            "type" : "VEC3"
        },
        {
            "bufferView" : 2,
            "componentType" : 5126,
            "count" : 10240,
            "type" : "VEC2"
        },
        {
            "bufferView" : 3,
            "componentType" : 5123,
            "count" : 15360,
            "type" : "SCALAR"
        },
        {
            "bufferView" : 6,
            "componentType" : 5126,
            "count" : 5120,
            "max" : [
                1.0025969743728638,
                1.0000001192092896,
                0.9998236894607544
            ],
            "min" : [
                0.9766502380371094,
                -1,
                -1.000176191329956
            ],
            "type" : "VEC3"
        },
        {
            "bufferView" : 7,
            "componentType" : 5126,
            "count" : 5120,
            "type" : "VEC3"
        },
        {
            "bufferView" : 8,
            "componentType" : 5126,
            "count" : 5120,
            "type" : "VEC2"
        },
        {
            "bufferView" : 9,
            "componentType" : 5123,
            "count" : 7680,
            "type" : "SCALAR"
        }
    ],
    "bufferViews" : [
        {
            "buffer" : 0,
            "byteLength" : 122880,
            "byteOffset" : 0
        },
        {
            "buffer" : 0,
            "byteLength" : 122880,
            "byteOffset" : 122880
        },
        {
            "buffer" : 0,
            "byteLength" : 81920,
            "byteOffset" : 245760
        },
        {
            "buffer" : 0,
            "byteLength" : 30720,
            "byteOffset" : 327680
        },
        {
            "buffer" : 0,
            "byteLength" : 389456,
            "byteOffset" : 358400
        },
        {
            "buffer" : 0,
            "byteLength" : 83132,
            "byteOffset" : 747856
        },
        {
            "buffer" : 0,
            "byteLength" : 61440,
            "byteOffset" : 830988
        },
        {
            "buffer" : 0,
            "byteLength" : 61440,
            "byteOffset" : 892428
        },
        {
            "buffer" : 0,
            "byteLength" : 40960,
            "byteOffset" : 953868
        },
        {
            "buffer" : 0,
            "byteLength" : 15360,
            "byteOffset" : 994828
        }
    ],
    "buffers" : [
        {
            "byteLength" : 1010188,
            "uri" : "data:application/octet-stream;base64,"
        }
    ]
}
