{
    "asset" : {
        "generator" : "Khronos glTF Blender I/O v1.1.46",
        "version" : "2.0"
    },
    "scene" : 0,
    "scenes" : [
        {
            "name" : "Scene",
            "nodes" : [
                0,
                1
            ]
        }
    ],
    "nodes" : [
        {
            "mesh" : 0,
            "name" : "Cube",
            "scale" : [
                2,
                2,
                2
            ],
            "translation" : [
                -15,
                2,
                0
            ]
        },
        {
            "mesh" : 1,
            "name" : "Cube.007",
            "rotation" : [
                0,
                1,
                0,
                -1.6292068494294654e-07
            ],
            "scale" : [
                2,
                2,
                2
            ],
            "translation" : [
                17,
                2,
                -9.258601494366303e-06
            ]
        }
    ],
    "materials" : [
        {
            "doubleSided" : true,
            "emissiveFactor" : [
                0,
                0,
                0
            ],
            "name" : "Material",
            "normalTexture" : {
                "index" : 0,
                "texCoord" : 0
            },
            "pbrMetallicRoughness" : {
                "baseColorTexture" : {
                    "index" : 1,
                    "texCoord" : 0
                },
                "metallicFactor" : 0
            }
        }
    ],
    "meshes" : [
        {
            "name" : "Cube.007",
            "primitives" : [
                {
                    "attributes" : {
                        "POSITION" : 0,
                        "NORMAL" : 1,
                        "TEXCOORD_0" : 2
                    },
                    "indices" : 3,
                    "material" : 0
                }
            ]
        },
        {
            "name" : "Cube.008",
            "primitives" : [
                {
                    "attributes" : {
                        "POSITION" : 4,
                        "NORMAL" : 5,
                        "TEXCOORD_0" : 6
                    },
                    "indices" : 7,
                    "material" : 0
                }
            ]
        }
    ],
    "textures" : [
        {
            "source" : 0
        },
        {
            "source" : 1
        }
    ],
    "images" : [
        {
            "bufferView" : 4,
            "mimeType" : "image/jpeg",
            "name" : "Concrete_013_NORM"
        },
        {
            "bufferView" : 5,
            "mimeType" : "image/jpeg",
            "name" : "Concrete_013_COLOR"
        }
    ],
    "accessors" : [
        {
            "bufferView" : 0,
            "componentType" : 5126,
            "count" : 2560,
            "max" : [
                1.0025324821472168,
                1,
                1.000568151473999
            ],
            "min" : [
                -0.0014113634824752808,
                -1,
                -1.0006200075149536
            ],
            "type" : "VEC3"
        },
        {
            "bufferView" : 1,
            "componentType" : 5126,
            "count" : 2560,
            "type" : "VEC3"
        },
        {
            "bufferView" : 2,
            "componentType" : 5126,
            "count" : 2560,
            "type" : "VEC2"
        },
        {
            "bufferView" : 3,
            "componentType" : 5123,
            "count" : 3840,
            "type" : "SCALAR"
        },
        {
            "bufferView" : 6,
            "componentType" : 5126,
            "count" : 1280,
            "max" : [
                1.0025324821472168,
                1,
                0.9998235702514648
            ],
            "min" : [
                0.9766501188278198,
                -0.9999999403953552,
                -1.0001760721206665
            ],
            "type" : "VEC3"
        },
        {
            "bufferView" : 7,
            "componentType" : 5126,
            "count" : 1280,
            "type" : "VEC3"
        },
        {
            "bufferView" : 8,
            "componentType" : 5126,
            "count" : 1280,
            "type" : "VEC2"
        },
        {
            "bufferView" : 9,
            "componentType" : 5123,
            "count" : 1920,
            "type" : "SCALAR"
        }
    ],
    "bufferViews" : [
        {
            "buffer" : 0,
            "byteLength" : 30720,
            "byteOffset" : 0
        },
        {
            "buffer" : 0,
            "byteLength" : 30720,
            "byteOffset" : 30720
        },
        {
            "buffer" : 0,
            "byteLength" : 20480,
            "byteOffset" : 61440
        },
        {
            "buffer" : 0,
            "byteLength" : 7680,
            "byteOffset" : 81920
        },
        {
            "buffer" : 0,
            "byteLength" : 389456,
            "byteOffset" : 89600
        },
        {
            "buffer" : 0,
            "byteLength" : 83132,
            "byteOffset" : 479056
        },
        {
            "buffer" : 0,
            "byteLength" : 15360,
            "byteOffset" : 562188
        },
        {
            "buffer" : 0,
            "byteLength" : 15360,
            "byteOffset" : 577548
        },
        {
            "buffer" : 0,
            "byteLength" : 10240,
            "byteOffset" : 592908
        },
        {
            "buffer" : 0,
            "byteLength" : 3840,
            "byteOffset" : 603148
        }
    ],
    "buffers" : [
        {
            "byteLength" : 606988,
            "uri" : "data:application/octet-stream;base64,"
        }
    ]
}
