{
    "asset" : {
        "generator" : "Khronos glTF Blender I/O v1.1.46",
        "version" : "2.0"
    },
    "scene" : 0,
    "scenes" : [
        {
            "name" : "Scene",
            "nodes" : [
                0,
                1,
                2
            ]
        }
    ],
    "nodes" : [
        {
            "name" : "Light",
            "rotation" : [
                0.16907575726509094,
                0.7558803558349609,
                -0.27217137813568115,
                0.570947527885437
            ],
            "translation" : [
                4.958128452301025,
                9.547571182250977,
                -3.2288191318511963
            ]
        },
        {
            "name" : "Camera",
            "rotation" : [
                0.483536034822464,
                0.33687159419059753,
                -0.20870360732078552,
                0.7804827094078064
            ],
            "translation" : [
                7.358891487121582,
                4.958309173583984,
                6.925790786743164
            ]
        },
        {
            "mesh" : 0,
            "name" : "Cube"
        }
    ],
    "materials" : [
        {
            "doubleSided" : true,
            "emissiveFactor" : [
                0,
                0,
                0
            ],
            "name" : "Material",
            "normalTexture" : {
                "index" : 0,
                "texCoord" : 0
            },
            "pbrMetallicRoughness" : {
                "baseColorTexture" : {
                    "index" : 1,
                    "texCoord" : 0
                },
                "metallicFactor" : 0
            }
        }
    ],
    "meshes" : [
        {
            "name" : "Cube.007",
            "primitives" : [
                {
                    "attributes" : {
                        "POSITION" : 0,
                        "NORMAL" : 1,
                        "TEXCOORD_0" : 2
                    },
                    "indices" : 3,
                    "material" : 0
                }
            ]
        }
    ],
    "textures" : [
        {
            "source" : 0
        },
        {
            "source" : 1
        }
    ],
    "images" : [
        {
            "bufferView" : 4,
            "mimeType" : "image/jpeg",
            "name" : "Concrete_013_NORM"
        },
        {
            "bufferView" : 5,
            "mimeType" : "image/jpeg",
            "name" : "Concrete_013_COLOR"
        }
    ],
    "accessors" : [
        {
            "bufferView" : 0,
            "componentType" : 5126,
            "count" : 7680,
            "max" : [
                1.0034147500991821,
                1.0017646551132202,
                1.0013127326965332
            ],
            "min" : [
                -1.0001146793365479,
                -1.0017646551132202,
                -1.0019407272338867
            ],
            "type" : "VEC3"
        },
        {
            "bufferView" : 1,
            "componentType" : 5126,
            "count" : 7680,
            "type" : "VEC3"
        },
        {
            "bufferView" : 2,
            "componentType" : 5126,
            "count" : 7680,
            "type" : "VEC2"
        },
        {
            "bufferView" : 3,
            "componentType" : 5123,
            "count" : 11520,
            "type" : "SCALAR"
        }
    ],
    "bufferViews" : [
        {
            "buffer" : 0,
            "byteLength" : 92160,
            "byteOffset" : 0
        },
        {
            "buffer" : 0,
            "byteLength" : 92160,
            "byteOffset" : 92160
        },
        {
            "buffer" : 0,
            "byteLength" : 61440,
            "byteOffset" : 184320
        },
        {
            "buffer" : 0,
            "byteLength" : 23040,
            "byteOffset" : 245760
        },
        {
            "buffer" : 0,
            "byteLength" : 389456,
            "byteOffset" : 268800
        },
        {
            "buffer" : 0,
            "byteLength" : 83132,
            "byteOffset" : 658256
        }
    ],
    "buffers" : [
        {
            "byteLength" : 741388,
            "uri" : "data:application/octet-stream;base64,"
        }
    ]
}
