{
    "asset" : {
        "generator" : "Khronos glTF Blender I/O v1.0.5",
        "version" : "2.0"
    },
    "scene" : 0,
    "scenes" : [
        {
            "name" : "Scene",
            "nodes" : [
                0,
                1,
                2,
                3,
                4,
                5,
                6,
                7
            ]
        }
    ],
    "nodes" : [
        {
            "mesh" : 0,
            "name" : "Plane",
            "scale" : [
                8,
                10,
                10
            ]
        },
        {
            "mesh" : 1,
            "name" : "Cylinder",
            "scale" : [
                10,
                10,
                10
            ],
            "translation" : [
                0,
                10,
                0
            ]
        },
        {
            "mesh" : 2,
            "name" : "Cube",
            "scale" : [
                1,
                10,
                1
            ],
            "translation" : [
                9,
                9.527581214904785,
                5
            ]
        },
        {
            "mesh" : 3,
            "name" : "Cube.001",
            "scale" : [
                1,
                10,
                1
            ],
            "translation" : [
                9,
                9.527581214904785,
                -5
            ]
        },
        {
            "mesh" : 4,
            "name" : "Cube.002",
            "scale" : [
                1,
                10,
                1
            ],
            "translation" : [
                -9,
                9.527581214904785,
                5
            ]
        },
        {
            "mesh" : 5,
            "name" : "Cube.003",
            "scale" : [
                1,
                10,
                1
            ],
            "translation" : [
                -9,
                9.527581214904785,
                -5
            ]
        },
        {
            "mesh" : 6,
            "name" : "Plane.001",
            "scale" : [
                10,
                10,
                10
            ],
            "translation" : [
                0,
                -0.20521533489227295,
                0
            ]
        },
        {
            "name" : "Camera",
            "rotation" : [
                0,
                0.7331542372703552,
                -0.6800624132156372,
                -2.0684478840848897e-07
            ],
            "translation" : [
                0.6635940074920654,
                6.648454189300537,
                -31.812551498413086
            ]
        }
    ],
    "materials" : [
        {
            "doubleSided" : true,
            "name" : "Material.001",
            "pbrMetallicRoughness" : {
                "baseColorFactor" : [
                    0.3632768988609314,
                    0.4718053936958313,
                    0.8000000715255737,
                    1
                ],
                "metallicFactor" : 0,
                "roughnessFactor" : 0.5
            }
        },
        {
            "doubleSided" : true,
            "name" : "Material.002",
            "pbrMetallicRoughness" : {
                "baseColorFactor" : [
                    0.18782082200050354,
                    0.35640013217926025,
                    0.7991030216217041,
                    1
                ],
                "metallicFactor" : 0,
                "roughnessFactor" : 0.5
            }
        },
        {
            "doubleSided" : true,
            "name" : "Material.003",
            "pbrMetallicRoughness" : {
                "baseColorFactor" : [
                    0.18782082200050354,
                    0.35640013217926025,
                    0.7991030216217041,
                    1
                ],
                "metallicFactor" : 0,
                "roughnessFactor" : 0.5
            }
        },
        {
            "doubleSided" : true,
            "name" : "Material",
            "pbrMetallicRoughness" : {
                "baseColorFactor" : [
                    0.800000011920929,
                    0.800000011920929,
                    0.800000011920929,
                    1
                ],
                "metallicFactor" : 0,
                "roughnessFactor" : 0.5
            }
        }
    ],
    "meshes" : [
        {
            "name" : "Plane",
            "primitives" : [
                {
                    "attributes" : {
                        "POSITION" : 0,
                        "NORMAL" : 1,
                        "TEXCOORD_0" : 2
                    },
                    "indices" : 3,
                    "material" : 0
                }
            ]
        },
        {
            "name" : "Cylinder.001",
            "primitives" : [
                {
                    "attributes" : {
                        "POSITION" : 4,
                        "NORMAL" : 5,
                        "TEXCOORD_0" : 6
                    },
                    "indices" : 7,
                    "material" : 1
                }
            ]
        },
        {
            "name" : "Cube",
            "primitives" : [
                {
                    "attributes" : {
                        "POSITION" : 8,
                        "NORMAL" : 9,
                        "TEXCOORD_0" : 10
                    },
                    "indices" : 3,
                    "material" : 2
                }
            ]
        },
        {
            "name" : "Cube.001",
            "primitives" : [
                {
                    "attributes" : {
                        "POSITION" : 11,
                        "NORMAL" : 12,
                        "TEXCOORD_0" : 13
                    },
                    "indices" : 3,
                    "material" : 2
                }
            ]
        },
        {
            "name" : "Cube.002",
            "primitives" : [
                {
                    "attributes" : {
                        "POSITION" : 14,
                        "NORMAL" : 15,
                        "TEXCOORD_0" : 16
                    },
                    "indices" : 3,
                    "material" : 2
                }
            ]
        },
        {
            "name" : "Cube.003",
            "primitives" : [
                {
                    "attributes" : {
                        "POSITION" : 17,
                        "NORMAL" : 18,
                        "TEXCOORD_0" : 19
                    },
                    "indices" : 3,
                    "material" : 2
                }
            ]
        },
        {
            "name" : "Plane.001",
            "primitives" : [
                {
                    "attributes" : {
                        "POSITION" : 20,
                        "NORMAL" : 21,
                        "TEXCOORD_0" : 22
                    },
                    "indices" : 23,
                    "material" : 3
                }
            ]
        }
    ],
    "accessors" : [
        {
            "bufferView" : 0,
            "componentType" : 5126,
            "count" : 24,
            "max" : [
                1,
                0,
                1
            ],
            "min" : [
                -1,
                -0.009999999776482582,
                -1
            ],
            "type" : "VEC3"
        },
        {
            "bufferView" : 1,
            "componentType" : 5126,
            "count" : 24,
            "type" : "VEC3"
        },
        {
            "bufferView" : 2,
            "componentType" : 5126,
            "count" : 24,
            "type" : "VEC2"
        },
        {
            "bufferView" : 3,
            "componentType" : 5123,
            "count" : 36,
            "type" : "SCALAR"
        },
        {
            "bufferView" : 4,
            "componentType" : 5126,
            "count" : 264,
            "max" : [
                0.9999999403953552,
                1.0000004768371582,
                1.0000004768371582
            ],
            "min" : [
                -0.9999999403953552,
                -1.038574457168579,
                -0.9999996423721313
            ],
            "type" : "VEC3"
        },
        {
            "bufferView" : 5,
            "componentType" : 5126,
            "count" : 264,
            "type" : "VEC3"
        },
        {
            "bufferView" : 6,
            "componentType" : 5126,
            "count" : 264,
            "type" : "VEC2"
        },
        {
            "bufferView" : 7,
            "componentType" : 5123,
            "count" : 396,
            "type" : "SCALAR"
        },
        {
            "bufferView" : 8,
            "componentType" : 5126,
            "count" : 24,
            "max" : [
                1,
                1,
                1
            ],
            "min" : [
                -1,
                -1,
                -1
            ],
            "type" : "VEC3"
        },
        {
            "bufferView" : 9,
            "componentType" : 5126,
            "count" : 24,
            "type" : "VEC3"
        },
        {
            "bufferView" : 10,
            "componentType" : 5126,
            "count" : 24,
            "type" : "VEC2"
        },
        {
            "bufferView" : 11,
            "componentType" : 5126,
            "count" : 24,
            "max" : [
                1,
                1,
                1
            ],
            "min" : [
                -1,
                -1,
                -1
            ],
            "type" : "VEC3"
        },
        {
            "bufferView" : 12,
            "componentType" : 5126,
            "count" : 24,
            "type" : "VEC3"
        },
        {
            "bufferView" : 13,
            "componentType" : 5126,
            "count" : 24,
            "type" : "VEC2"
        },
        {
            "bufferView" : 14,
            "componentType" : 5126,
            "count" : 24,
            "max" : [
                1,
                1,
                1
            ],
            "min" : [
                -1,
                -1,
                -1
            ],
            "type" : "VEC3"
        },
        {
            "bufferView" : 15,
            "componentType" : 5126,
            "count" : 24,
            "type" : "VEC3"
        },
        {
            "bufferView" : 16,
            "componentType" : 5126,
            "count" : 24,
            "type" : "VEC2"
        },
        {
            "bufferView" : 17,
            "componentType" : 5126,
            "count" : 24,
            "max" : [
                1,
                1,
                1
            ],
            "min" : [
                -1,
                -1,
                -1
            ],
            "type" : "VEC3"
        },
        {
            "bufferView" : 18,
            "componentType" : 5126,
            "count" : 24,
            "type" : "VEC3"
        },
        {
            "bufferView" : 19,
            "componentType" : 5126,
            "count" : 24,
            "type" : "VEC2"
        },
        {
            "bufferView" : 20,
            "componentType" : 5126,
            "count" : 4,
            "max" : [
                1,
                0,
                1
            ],
            "min" : [
                -1,
                0,
                -1
            ],
            "type" : "VEC3"
        },
        {
            "bufferView" : 21,
            "componentType" : 5126,
            "count" : 4,
            "type" : "VEC3"
        },
        {
            "bufferView" : 22,
            "componentType" : 5126,
            "count" : 4,
            "type" : "VEC2"
        },
        {
            "bufferView" : 23,
            "componentType" : 5123,
            "count" : 6,
            "type" : "SCALAR"
        }
    ],
    "bufferViews" : [
        {
            "buffer" : 0,
            "byteLength" : 288,
            "byteOffset" : 0
        },
        {
            "buffer" : 0,
            "byteLength" : 288,
            "byteOffset" : 288
        },
        {
            "buffer" : 0,
            "byteLength" : 192,
            "byteOffset" : 576
        },
        {
            "buffer" : 0,
            "byteLength" : 72,
            "byteOffset" : 768
        },
        {
            "buffer" : 0,
            "byteLength" : 3168,
            "byteOffset" : 840
        },
        {
            "buffer" : 0,
            "byteLength" : 3168,
            "byteOffset" : 4008
        },
        {
            "buffer" : 0,
            "byteLength" : 2112,
            "byteOffset" : 7176
        },
        {
            "buffer" : 0,
            "byteLength" : 792,
            "byteOffset" : 9288
        },
        {
            "buffer" : 0,
            "byteLength" : 288,
            "byteOffset" : 10080
        },
        {
            "buffer" : 0,
            "byteLength" : 288,
            "byteOffset" : 10368
        },
        {
            "buffer" : 0,
            "byteLength" : 192,
            "byteOffset" : 10656
        },
        {
            "buffer" : 0,
            "byteLength" : 288,
            "byteOffset" : 10848
        },
        {
            "buffer" : 0,
            "byteLength" : 288,
            "byteOffset" : 11136
        },
        {
            "buffer" : 0,
            "byteLength" : 192,
            "byteOffset" : 11424
        },
        {
            "buffer" : 0,
            "byteLength" : 288,
            "byteOffset" : 11616
        },
        {
            "buffer" : 0,
            "byteLength" : 288,
            "byteOffset" : 11904
        },
        {
            "buffer" : 0,
            "byteLength" : 192,
            "byteOffset" : 12192
        },
        {
            "buffer" : 0,
            "byteLength" : 288,
            "byteOffset" : 12384
        },
        {
            "buffer" : 0,
            "byteLength" : 288,
            "byteOffset" : 12672
        },
        {
            "buffer" : 0,
            "byteLength" : 192,
            "byteOffset" : 12960
        },
        {
            "buffer" : 0,
            "byteLength" : 48,
            "byteOffset" : 13152
        },
        {
            "buffer" : 0,
            "byteLength" : 48,
            "byteOffset" : 13200
        },
        {
            "buffer" : 0,
            "byteLength" : 32,
            "byteOffset" : 13248
        },
        {
            "buffer" : 0,
            "byteLength" : 12,
            "byteOffset" : 13280
        }
    ],
    "buffers" : [
        {
            "byteLength" : 13292,
            "uri" : "data:application/octet-stream;base64,"
        }
    ]
}
